# Blender 5.0.1
# www.blender.org
mtllib Road.mtl
o Plane
v -10.000000 0.000000 10.000000
v 10.000000 0.000000 10.000000
v -10.000000 0.000000 -10.000000
v 10.000000 0.000000 -10.000000
v -10.000000 0.100000 10.000000
v 10.000000 0.100000 10.000000
v -10.000000 0.100000 -10.000000
v 10.000000 0.100000 -10.000000
vn -0.0000 -1.0000 -0.0000
vn -0.0000 1.0000 -0.0000
vn -0.0000 -0.0000 -1.0000
vn -0.0000 -0.0000 1.0000
vn 1.0000 -0.0000 -0.0000
vn -1.0000 -0.0000 -0.0000
vt 0.000000 1.000000
vt 0.000000 0.000000
vt 1.000000 0.000000
vt 1.000000 1.000000
vt 0.000000 0.000000
vt 1.000000 0.000000
vt 1.000000 1.000000
vt 0.000000 1.000000
vt 0.000000 0.968750
vt 1.000000 0.968750
vt 1.000000 0.984375
vt 0.000000 0.984375
vt 0.984375 1.000000
vt 0.984375 0.000000
vt 0.968750 1.000000
vt 0.968750 0.000000
s 0
usemtl Material
f 1/1/1 3/2/1 4/3/1 2/4/1
f 5/5/2 6/6/2 8/7/2 7/8/2
f 4/9/3 3/10/3 7/11/3 8/12/3
f 1/12/4 2/11/4 6/4/4 5/1/4
f 2/3/5 4/4/5 8/13/5 6/14/5
f 3/14/6 1/13/6 5/15/6 7/16/6
